<svg id="Layer_1" data-name="Layer 1" xmlns="http://www.w3.org/2000/svg" viewBox="0 0 595.28 272.41"><title>Certificates logos</title><path d="M541.63,205.36v5.23c-.7,1,.38,2.46-.87,3.32-1.6.23-2,1.72-2.69,2.78-1.18,1.94-2.59,3.69-4.68,4.39-4.32,1.46-8.2,4.18-13.09,4.07-8.24-.19-16.47-.05-24.71-.06a5.36,5.36,0,0,1-2.57-.28,1.54,1.54,0,0,1-.5-.71c-.06-4-.48-8,.23-12,1.11-1.06,2.53-.78,3.83-.79q12.81-.08,25.62,0a2.31,2.31,0,0,1,1.33.34c1.85,1.23,3.65.65,4.55-1.46a7.55,7.55,0,0,0-1.39-6.86c-1.51-1.49-2.35-1.51-4.1-.08a1.63,1.63,0,0,1-1.08.39c-4.31-.06-8.62.28-12.92-.22-1.26-1.66-3.06-2.1-5-2.53a14.79,14.79,0,0,1-11.22-12.66,17.11,17.11,0,0,1,3.44-13.33c2.44-3,6-4.5,9.76-5.3,1.6-.34,3.13-1.09,4.86-.8,1.44.23,1.35-1.64,2.45-1.94a210.77,210.77,0,0,1,25.26.1,2.78,2.78,0,0,1,.39,4.16,19.84,19.84,0,0,0-2.93,6.2,4.89,4.89,0,0,1-4.81,3.61c-5.45-.22-10.93,0-16.39-.09-1.7,0-3.32.1-5-.91-1.49-.88-3,.42-4.08,1.61-.88,1-1.08,2.11.16,3.08a1.52,1.52,0,0,1,.21,1.1c-1.7,1.77-.28,3,.83,4.18s2.51,1.83,4,.7a3.63,3.63,0,0,1,2.41-.71h11.86c.94,0,1.92-.09,2.39,1.07a1.36,1.36,0,0,0,1.37.76c3.19,0,5.39,2.38,8.17,3.37.8.29,1,1.16,1.36,1.86.64,1.27,1.28,2.57,2.92,2.8.7.68.34,1.55.42,2.33C541.19,203.21,540.09,204.38,541.63,205.36Z"/><path d="M541.2,202.49a2,2,0,0,0,.43,0v2.85c-.79-.09-1.57-.25-1.7-1.19S540.53,202.87,541.2,202.49Z"/><path d="M159.58,103.56c.83-.55.87-1.4,1.12-2.11q5-14.24,10-28.48c.39-1.12.78-2.24,1.2-3.35.78-2.08.79-2.1,3.11-2.11,2.77,0,5.54,0,8.31,0,3,0,6,0,9,0,2.81,0,2.86.09,2.9,3V121.1c0,3.5,0,3.51-3.54,3.51-2.61,0-5.23,0-7.84,0s-2.84-.12-2.87-2.77c0-2.14,0-4.28,0-6.42V83.86c-1,.36-1,1.17-1.21,1.74q-6.51,18-13,36c-.19.52-.4,1-.56,1.57a2,2,0,0,1-2.15,1.45c-2.93,0-5.87,0-8.8,0-2.08,0-2.12,0-2.87-2.09Q148.67,112.23,145,102c-2-5.44-3.91-10.88-5.9-16.31-.2-.56-.19-1.27-1-1.67a6.61,6.61,0,0,0-.17,2.53q0,17.46,0,34.93c0,3.15,0,3.16-3.16,3.17s-6,0-9,0c-1.85,0-2-.22-2.07-2.08,0-1.42,0-2.85,0-4.28V71c0-3.45,0-3.45,3.35-3.45l16.64,0c2.78,0,2.79,0,3.73,2.61q5.58,15.54,11.17,31.08A5.39,5.39,0,0,0,159.58,103.56Z"/><path d="M484,102.47a6.45,6.45,0,0,0,.38-3.08q0-14,0-28c0-.55,0-1.11,0-1.66.09-2,.25-2.14,2.26-2.16q4.88-.06,9.75,0c1.95,0,2.14.23,2.22,2.21,0,1.26,0,2.53,0,3.8v47.53c0,3.54,0,3.55-3.49,3.55-4,0-7.92-.07-11.88,0a3.76,3.76,0,0,1-3.65-2c-6.6-10.35-13.28-20.65-19.94-31a11.19,11.19,0,0,0-2.16-2.89,3.86,3.86,0,0,0-.44,2.62q0,14.63,0,29.23c0,.72,0,1.43,0,2.14-.11,1.54-.31,1.81-1.85,1.84q-5.24.08-10.46,0c-1.6,0-1.78-.25-1.9-1.77-.05-.55,0-1.11,0-1.67q0-25.07,0-50.14c0-3.5,0-3.51,3.56-3.51,4.12,0,8.24.07,12.36,0a3.77,3.77,0,0,1,3.65,2C469,79.77,475.61,90,482.23,100.26A7,7,0,0,0,484,102.47Z"/><path d="M204.94,95.89V71.17c0-.64,0-1.27,0-1.91,0-1.16.47-1.79,1.69-1.75.55,0,1.11,0,1.66,0q20,0,39.95,0c3.31,0,3.31,0,3.32,3.24,0,2.38,0,4.75,0,7.13s-.15,2.39-2.48,2.4c-7.69,0-15.38,0-23.06,0-1.59,0-3.18,0-4.76,0A1.51,1.51,0,0,0,219.5,82c0,2.22-.06,4.44-.1,6.66a1.28,1.28,0,0,0,1.45,1.46c.71,0,1.42,0,2.14,0h24.25c.64,0,1.27,0,1.91,0,1.15,0,1.78.48,1.78,1.69q0,4.27,0,8.56c0,1.21-.58,1.72-1.75,1.69-.63,0-1.27,0-1.9,0h-24c-.64,0-1.27,0-1.9,0-1.55.11-1.81.31-1.86,1.84q-.1,3.09,0,6.18c.05,1.79.28,2,2.14,2,3.49.05,7,0,10.47,0,5.62,0,11.25,0,16.88,0,2.45,0,2.55.12,2.57,2.55,0,2.61,0,5.23,0,7.84,0,1.72-.24,1.88-2,2-.95,0-1.91,0-2.86,0H208.22c-3.27,0-3.28,0-3.28-3.28Z"/><path d="M372.06,67.51c3.71,0,6.48,0,9.25,0,1.75,0,2,.23,2,1.92.05,3.17.06,6.34,0,9.51,0,1.67-.28,1.91-2,1.94-3.8.06-7.61,0-11.41,0-1.5,0-3,.1-4.5.25a11.57,11.57,0,0,0-9.73,6.7,19.22,19.22,0,0,0-.38,16.79c2.24,5.17,6.79,7,12.08,7.47,1.26.1,2.53,0,3.8.08s1.42.36.9,1.51c-1.5,3.23-3.1,6.42-4.63,9.64a2.17,2.17,0,0,1-2.09,1.24,22.91,22.91,0,0,1-22.89-13.07,34.76,34.76,0,0,1-3.26-16.39,36.23,36.23,0,0,1,1.16-8.46c2.72-10.4,10.34-17.17,21-18.74A80.83,80.83,0,0,1,372.06,67.51Z"/><path d="M332.27,96.25V121c0,.63,0,1.27,0,1.9,0,1.16-.48,1.76-1.69,1.75H319.39c-1.15,0-1.79-.47-1.75-1.69,0-.55,0-1.1,0-1.66V70.91c0-3.41,0-3.41,3.37-3.41q4.15,0,8.31,0c2.94,0,3,0,3,2.87,0,4.91,0,9.82,0,14.72Z"/><path d="M508.33,202.54c-6.19.17-11.43-1.75-14.81-7.23A17.64,17.64,0,0,1,503,169.13a24.74,24.74,0,0,1,9.58-1.34c-.63,2.08-.87,2.12-2.67,2.32-3.76.42-7.36,1.19-10.66,3.41a13,13,0,0,0-5.33,8,15.37,15.37,0,0,0,.43,9.93c2,5.09,5.85,7.73,11,8.64C507,200.34,508.05,200.88,508.33,202.54Z"/><path d="M505.05,185.86c1,3.3,3.36,4.45,6.69,4.35,4.26-.13,8.52,0,12.78,0a23.54,23.54,0,0,1,6.3.88,14.47,14.47,0,0,1,8.94,6.53,11.33,11.33,0,0,0,.89,1.08l.06,1.38c-.68,1.16-1.48,1.13-2.22.13a6.74,6.74,0,0,1-1.45-2.42,2.56,2.56,0,0,0-1.94-2.1A13.69,13.69,0,0,1,532,194a4.41,4.41,0,0,0-2.17-.84,4,4,0,0,1-3.62-1.84c-.41-.66-1.23-.65-1.94-.65H513.35a3.9,3.9,0,0,0-2.58,1,3.12,3.12,0,0,1-4.12.13,10,10,0,0,1-2.71-4.09C503.56,186.79,504.23,186.19,505.05,185.86Z"/><path d="M540.66,169.72c-1.69,2.14-2.51,4.71-3.67,7.11-2,4.06-1.26,3.66-5.77,3.68-5.92,0-11.84,0-17.75,0-.87,0-1.74,0-2.61,0-3.56.14-4.63,1-5.84,4.38-1.67-1.21-1.93-2.91-.58-4.34a8.71,8.71,0,0,1,3.68-2.08,1.67,1.67,0,0,1,1.94.55,3.74,3.74,0,0,0,3.22,1.12h16.86c2.6,0,3.65-.66,4.35-3.12a16.89,16.89,0,0,1,3.29-6.75,3.68,3.68,0,0,0,.52-2.51l2.3,0A4,4,0,0,1,540.66,169.72Z"/><path d="M540.65,214.9a3.41,3.41,0,0,0-1,1.32,16,16,0,0,1-11,8,25.06,25.06,0,0,1-5.4.63H495.61a3.72,3.72,0,0,1-2.51-.41h28.23c1.67,0,3.16,0,4.51-1.48,1.12-1.19,3-1.25,4.58-1.78,2.47-.84,4.79-1.89,6.09-4.42a28.18,28.18,0,0,0,1.94-3.21c.52-1.45,1.48-.59,2.24,0C540.68,214,540.67,214.42,540.65,214.9Z"/><path d="M523,212.45c.51-.2,1-.38,1.53-.6a4.36,4.36,0,0,0,2.88-4.62,4.55,4.55,0,0,0-3.34-4.1c-.66-.22-1.35-.38-2-.56,2.25-2.11,4.4-1.88,6,.63,1.31,2,1.4,4.38,1.36,6.55A3.84,3.84,0,0,1,523,212.45Z"/><path d="M493.1,224.4c-.68-3-.18-6-.31-9a5.23,5.23,0,0,1,.31-2.79Z"/><path d="M158.29,196.09V171.37c0-.71,0-1.43,0-2.14a1.34,1.34,0,0,1,1.45-1.5c.63,0,1.27,0,1.9,0h40c3.29,0,3.29,0,3.3,3.28,0,2.3,0,4.6,0,6.89s-.19,2.36-2.49,2.42c-.87,0-1.74,0-2.61,0h-24c-3.12,0-3.13,0-3.14,3.22,0,1.11,0,2.22,0,3.33,0,3.33,0,3.33,3.47,3.34h21.16c1.43,0,2.85,0,4.28,0,2.56,0,2.68.14,2.71,2.7q0,3.45,0,6.89c0,2.15-.2,2.29-2.3,2.35-.64,0-1.27,0-1.91,0H175.79c-3.12,0-3.13,0-3.14,3.22,0,1.67,0,3.33,0,5s.28,2,2.11,2.07c.72,0,1.43,0,2.14,0q12.72,0,25.45,0c2.42,0,2.52.13,2.55,2.57,0,2.62,0,5.23,0,7.85,0,1.71-.23,1.84-2,1.94-.55,0-1.11,0-1.67,0H161.8c-.47,0-1,0-1.43,0-1.84-.08-2-.23-2.07-2.08,0-.64,0-1.27,0-1.91Z"/><path d="M387.05,196.34V171.87c0-.63,0-1.26,0-1.9.07-2,.21-2.18,2.16-2.27.47,0,1,0,1.42,0h39.45c.55,0,1.11,0,1.66,0,1.67.11,1.88.27,1.91,2q.08,4.16,0,8.31c0,2-.22,2.15-2.19,2.24-.71,0-1.43,0-2.14,0q-12.6,0-25.19,0c-2.58,0-2.71.15-2.73,2.66,0,1.82,0,3.64,0,5.46,0,1.17.49,1.78,1.7,1.75.64,0,1.27,0,1.91,0h24.23c.72,0,1.43,0,2.14,0a1.23,1.23,0,0,1,1.33,1.34q0,4.51,0,9a1.32,1.32,0,0,1-1.44,1.5c-.71,0-1.42,0-2.14,0h-24c-.63,0-1.27,0-1.9,0-1.51.11-1.78.33-1.82,1.88-.06,2.21,0,4.43,0,6.65,0,1.17.49,1.78,1.7,1.74.64,0,1.27,0,1.9,0h25l2.13,0c.93,0,1.53.4,1.53,1.4,0,3.17,0,6.33,0,9.5,0,1-.56,1.41-1.51,1.42l-1.66,0H390.31c-3.25,0-3.26,0-3.26-3.29Q387,208.94,387.05,196.34Z"/><path d="M457.35,224.81H443.09c-2.65,0-2.72-.08-2.75-2.62q0-3.56,0-7.13c0-2.53.11-2.62,2.74-2.62h25a9.14,9.14,0,0,0,4.61-.92,4.46,4.46,0,0,0,.13-7.81,6.64,6.64,0,0,0-2.22-.8,17.64,17.64,0,0,0-3.55-.27c-4.44,0-8.88.11-13.31-.11-5.47-.28-9.95-2.57-12.81-7.41a17.94,17.94,0,0,1-2.31-11c.75-7.93,5.15-13.1,12.83-15.29a26.66,26.66,0,0,1,7.26-1.1l27.35,0h.24c2.1.09,2.3.35,1.46,2.21-1.21,2.67-2.59,5.27-3.68,8a3.73,3.73,0,0,1-4.12,2.67c-6.42-.14-12.84-.05-19.26,0-1,0-1.9,0-2.85,0-3.29.21-5.18,2-5.11,4.73s2.22,4.8,5.39,4.85c4.59.07,9.19,0,13.79,0a24,24,0,0,1,6.57.93,14.24,14.24,0,0,1,10.85,13.2,24.22,24.22,0,0,1-.37,7.1,16.11,16.11,0,0,1-13.3,12.91,29.13,29.13,0,0,1-5.44.5C465.91,224.78,461.63,224.81,457.35,224.81Z"/><path d="M268.81,168.18l-2.5,3.15q-9.22,11.5-18.44,23c-1.51,1.88-1.5,1.89,0,3.77q9.55,12,19.1,24a7.17,7.17,0,0,1,1.54,2.25c-.39.62-.91.46-1.35.46-4.68,0-9.36,0-14,0a3.56,3.56,0,0,1-3.2-1.59c-3.41-4.58-6.9-9.09-10.36-13.63-.39-.5-.78-1-1.19-1.48s-.93-.57-1.38,0-.79,1-1.17,1.5c-3.21,4.32-6.48,8.6-9.62,13a4.66,4.66,0,0,1-4.34,2.23c-4-.13-7.92,0-11.88,0a15.17,15.17,0,0,1-1.66-.06c-.81-.1-.88-.58-.48-1.17s.86-1.14,1.3-1.69q9.09-11.31,18.19-22.6c.29-.37.6-.73.89-1.11,1.24-1.62,1.27-1.65,0-3.21-2.85-3.6-5.74-7.17-8.62-10.76l-11.17-13.89c-.35-.43-.71-.86-1-1.31-.5-.72-.35-1.19.56-1.27.56-.05,1.11-.05,1.67-.05,4,0,7.92.08,11.88,0a4.77,4.77,0,0,1,4.41,2.11c3.21,4.33,6.57,8.54,9.87,12.8.34.44.67.89,1,1.32,1.23,1.51,1.31,1.5,2.61-.07.3-.36.58-.75.87-1.12,3.4-4.38,6.84-8.74,10.19-13.16a4.2,4.2,0,0,1,3.8-1.87c4,.09,8.08,0,12.12,0A3.74,3.74,0,0,1,268.81,168.18Z"/><path d="M313.72,123.46a13.6,13.6,0,0,0-.92-1.09c-3.12-3.48-6.27-6.93-9.34-10.45-2.28-2.61-4.75-5.06-6.91-8a5.24,5.24,0,0,1,2.25-.87c13.31-3.74,16.36-19.19,9.24-28.34-4-5.13-9.59-7.14-15.88-7.22-9.75-.12-19.49,0-29.24,0-2.9,0-2.9,0-2.93,2.91v40.87c0,3.56,0,7.12,0,10.69,0,2.54.11,2.62,2.72,2.64,3,0,6,0,9,0,2.39,0,2.5-.13,2.51-2.61,0-4.76,0-9.51,0-14.26,0-.63,0-1.27.05-1.9a1.27,1.27,0,0,1,1.32-1.36c2.66-.21,4.95-.11,6.91,2.42,4.26,5.51,8.94,10.7,13.39,16.06a4,4,0,0,0,3.43,1.68c4.19-.07,8.39,0,12.59,0a11.72,11.72,0,0,0,1.19-.05C313.89,124.49,314.15,124.12,313.72,123.46ZM291.18,92.23c-2.52.11-5.06,0-7.59,0h0c-2.45,0-4.9,0-7.36,0-1.72,0-1.9-.22-1.94-1.95q-.07-4,0-8.06c0-1.7.23-1.9,2-1.92,4.91,0,9.81-.1,14.71,0a6.16,6.16,0,0,1,6.29,5.86A6.09,6.09,0,0,1,291.18,92.23Z"/><path d="M439.93,121.78q-6.23-14.52-12.46-29c-3.31-7.71-6.65-15.41-9.91-23.15a2.92,2.92,0,0,0-3.21-2.13c-2.29.12-4.59,0-6.89,0s-4.44.13-6.65,0c-2-.15-3.11.57-3.92,2.49-4.07,9.72-8.29,19.37-12.45,29q-5,11.67-10.05,23.35c-.84,2-.69,2.24,1.38,2.26,3.88,0,7.76,0,11.64,0a2.57,2.57,0,0,0,2.79-2c.92-2.53,2-5,2.94-7.52a2.59,2.59,0,0,1,2.79-2q11.18.09,22.34,0a2.58,2.58,0,0,1,2.82,1.93c.92,2.53,2.05,5,2.93,7.53a2.66,2.66,0,0,0,3,2c3.72-.08,7.44,0,11.16,0C441,124.6,441.08,124.46,439.93,121.78Zm-26.26-21-1.18,0c-3.88,0-7.76,0-11.64,0-1.53,0-1.7-.27-1.13-1.71,2.18-5.51,4.42-11,6.64-16.51.15-.35.24-.79.76-.84.66.29.73,1,1,1.53q3.06,7.59,6.11,15.2a11.39,11.39,0,0,1,.41,1.11C414.85,100.39,414.48,100.77,413.67,100.78Z"/><path d="M120.52,121.39q-6.34-14.73-12.67-29.46Q103,80.69,98.19,69.45c-.45-1-.88-2-2.31-2-5.23.05-10.46,0-15.68,0a2,2,0,0,0-2,1.32c-.21.51-.46,1-.67,1.52q-7.09,16.47-14.18,32.94Q59.15,113,55,122.72c-.69,1.62-.55,1.86,1.07,1.88,4.12,0,8.24,0,12.35,0a2.32,2.32,0,0,0,2.44-1.79c1-2.59,2.08-5.13,3-7.74a2.59,2.59,0,0,1,2.83-1.93q11.16.08,22.33,0a2.57,2.57,0,0,1,2.81,1.94c.87,2.47,2,4.84,2.83,7.31a2.89,2.89,0,0,0,3.35,2.23c1.82-.13,3.64,0,5.47,0h5C121.92,124.61,121.91,124.61,120.52,121.39ZM93.66,100.8c-4,0-7.91,0-11.87,0-1.73,0-1.93-.27-1.33-1.76,2.22-5.59,4.49-11.15,6.76-16.72a2.53,2.53,0,0,1,.46-.6,1.46,1.46,0,0,1,.9,1c2.16,5.35,4.33,10.7,6.47,16.06C95.79,100.65,95.69,100.78,93.66,100.8Z"/><path d="M382.23,222.68q-7.41-8.35-14.85-16.68c-1.85-2.07-1.85-2.07.91-2.86.22-.07.46-.13.68-.21,6.43-2.3,10.56-6.77,11.69-13.48,1.17-6.92-.59-13.08-6.38-17.59a20.2,20.2,0,0,0-12.87-4.16H332.65c-3.5,0-3.51,0-3.51,3.54v42.06c0,3,0,6,0,9,0,2.28.2,2.46,2.43,2.48q4.64,0,9.27,0c2.41,0,2.53-.14,2.55-2.58,0-4.91,0-9.83,0-14.74a17.07,17.07,0,0,1,.08-1.89,1.08,1.08,0,0,1,1.05-1.09c2.6-.14,5-.38,7,2.19,4.38,5.61,9.15,10.93,13.7,16.42a4.22,4.22,0,0,0,3.65,1.73c4.11-.09,8.23,0,12.35,0,.68,0,1.42.18,2-.35C383.39,223.57,382.68,223.18,382.23,222.68Zm-18.31-31.5a7.46,7.46,0,0,1-4.25,1.29H352.8c-2.45,0-4.9,0-7.35,0-1.7,0-2-.28-2-1.92-.07-2.76-.06-5.53,0-8.29,0-1.6.29-1.91,1.76-1.92,4.9,0,9.8,0,14.7,0a7.16,7.16,0,0,1,4.39,1.57A5.53,5.53,0,0,1,363.92,191.18Z"/><path d="M322.77,184.06c-.87-6.61-4.24-11.49-10.33-14.38a21.7,21.7,0,0,0-9.46-2q-14.5,0-29,0c-.56,0-1.11,0-1.67.05a1.26,1.26,0,0,0-1.34,1.34c0,.71-.05,1.43-.05,2.14V200.7c0,7.21,0,14.42,0,21.63,0,2.31.16,2.45,2.41,2.47,3.33,0,6.66,0,10,0,1.83,0,2-.24,2.08-2.1,0-.64,0-1.27,0-1.9,0-3.81,0-7.61,0-11.41,0-2.45.18-2.59,2.55-2.62,2,0,4,0,5.94,0,4-.05,7.92.16,11.86-.43,9.13-1.37,15.26-6.91,16.83-15.39A22,22,0,0,0,322.77,184.06ZM308,189.43a6,6,0,0,1-4.42,3.94,13.91,13.91,0,0,1-3.28.42q-6.18.06-12.35,0c-2.36,0-2.52-.18-2.54-2.6,0-2.85,0-5.7,0-8.55,0-1.85.23-2,2.09-2.06,2.45,0,4.9,0,7.35,0v0c2.46,0,4.92-.12,7.36,0A6.37,6.37,0,0,1,308,189.43Z"/></svg>