<svg id="Layer_1" data-name="Layer 1" xmlns="http://www.w3.org/2000/svg" viewBox="0 0 595.28 272.41"><title>Certificates logos</title><path d="M10,79.33H112c0,4,0,8,0,12,0,18.63-.14,37.25-.14,55.87,0,14.76-5.6,26.46-18.77,33.75-10.19,5.64-20.62,10.86-31,16.19a3.23,3.23,0,0,1-2.55,0c-10-5-20-9.94-29.86-15.31C16,174.37,10.2,162.09,10.08,146.94c-.15-20.06-.08-40.12-.1-60.17Zm75.27,76.15-1.43,2.14c-.16,2.19-.48,4.39-.46,6.59,0,2.6-.8,4.28-3.51,5a14.79,14.79,0,0,0-3.39,1.89c1.61.46,3.2.71,4.2.06,1.48-1,2.32-3.24,3.83-3.74,2.36-.77.31-3.89,3.67-4.6,3.73-.8,6.12-.67,9.23,1.52,2.23,1.59,1.7,2.28.46,3.73-.74.86-1.38,1.81-2.06,2.72l1.06.77,5.22-7.16c-4.41.31-3.42-6.13-7.9-5.09C91,160,87.79,161,84.19,162c-.17-1.74-.31-3.11-.44-4.47,1.72,2.89,3.57,1.23,5.7.32l-1.87-2.39A4.47,4.47,0,0,0,88,155l2.66-5.46c-2.89-4.3-5-4.35-8.73.18l3.39,5.79ZM18.51,97.84c-3.7,2.87,1.74,4.08.42,7.32l4.35-3.71c-4.17-.52-4.18-.53-4.77-3.6-.32-1.87-.67-3.74-1-5.61-.24-1.61-.4-3.22-.6-4.84l-1.15.21L16.44,92l-1.6-.29a28.23,28.23,0,0,0,1.3,4.92C16.43,97.24,17.69,97.44,18.51,97.84Zm78.63-6.39c-.46-1.3-1.69-3.08-1.24-3.79,2.5-3.93,5,.72,7.85.34-.65-.43-1.28-.64-1.59-1.08-1.85-2.61-4.73-2.9-6.62-.61s-1.07,4.32,1.69,5c1.58,1.07,3.18,2.13,4.75,3.22,1.35,1,2.67,2,4,2.93l-4.11,1.94c-2.09-2.34-4.79-2.15-7.31-1.31a72.42,72.42,0,0,0-7.71,3.59l-1.55-2.66,6-1.94c-.77-1.42-1.2-2.19-1.64-3l2.1-6.08c-2.55-3.2-3.26-3.37-7.23-.48l6.51.8L87.63,90.8l2.16,3.44-5,2.22a20.08,20.08,0,0,0,0,4.43c1.21,5.78.56,7.6-4.25,10.91-1,.71-1.92,1.6-2.87,2.41l.42.37L82.91,113c1.54-1.84,5.21-4.29,5.7-7.25.76-4.6,3.74-3.82,6.35-4.59a3.71,3.71,0,0,0,1.06-.5c2.51,2.26,4.46,4.53,6.9,6,2.2,1.35,2.44,2.58,1.32,4.59-.65,1.15-1.21,2.35-1.86,3.64l3.91-1.34v-7.86c-5,.24-3.27-4.83-6.07-6.38l.68-.62,1,.7a9.74,9.74,0,0,0,2.47,0c.82-.18,2.11-.64,2.19-1.14.17-1.06,0-2.9-.58-3.22A85.72,85.72,0,0,0,97.14,91.45Zm-61,64a52.45,52.45,0,0,1,6.15,1.47c1.06.39,1.86,1.49,2.77,2.27a8.4,8.4,0,0,1-1.37,1.42,4,4,0,0,1-1.52.29c3.25.11,4.32-1,3.47-3.38-.91-2.53-7.46-3.94-9.5-2.06a10.78,10.78,0,0,1-1.54-2.94,5,5,0,0,1,.41-3.48c.34-.5,2.13-.32,3.09,0a20.28,20.28,0,0,1,3.54,2.15l.24-.33-1.81-2,5.17,1a18.81,18.81,0,0,0-5.4-2.6c-1.53-.34-3.78-.44-4.72.43s-1.26,3.15-1.14,4.76C34.09,153.5,35.42,154.45,36.18,155.44Zm-9.09-.26,4.23-5.4c-4.33-4.17-5.81-4.58-9.51.13l3.08,2.48-.8-3,.58-.34,4,4.81-1.6,1.3a1.33,1.33,0,0,1,.18.3c0,.09,0,.28,0,.3-1.2.5-2.41,1-4.36,1.75,5.62,1.66,5.62,1.66,7-.35Zm-3.89-55,1.15-2.47c2.77,2.55,3.87-.26,5.43-1.69-1.34-.34-2.84.31-3.81-.15-2.78-1.32-2.73.36-2.77,2.18,0,.7,0,1.41,0,2.12,4.27,7.57-2.57,10.19-7.32,14.36l5-.87c5.47-3.64,5.47-12.17,13.43-13,.22,0,.4-.41.27-.27,2.41,2.22,4.48,4.72,7.1,6.35,2.39,1.49,2.56,2.74,1.19,4.84-.68,1-1.19,2.21-2,3.78l4.07-2v-7.46c-4.57,0-3.42-4.66-6.43-7.37,1.67.42,2.22.55,2.8.67,1.43-.35,3.7-.29,4.12-1.14.87-1.75-.17-3.17-2.36-3.84a26.65,26.65,0,0,1-6.43-3c-1-.65-1.55-2-2.3-3.11,1.24-.53,3-1.85,3.63-1.44,2.56,1.57,4.69.82,6.72-.25-1.55-.43-3.25-1-5-1.36-2.35-.51-4.72-.46-5.79,2.13s.3,4.63,2.66,5.84c1.58.81,3.38,1.19,4.94,2a20.21,20.21,0,0,1,3.13,2.45L41.2,99.23c-5.83-3.8-10.42.08-14.82,2.28C25.11,101,24.14,100.59,23.2,100.16ZM50,120.35H12.39v21.3H49.94V146c0,13.61.05,27.22,0,40.82,0,2.43.83,3.62,2.87,5,5.45,3.75,10.44,3.61,15.9,0,2.14-1.39,3.24-2.54,3.21-5.2-.13-13.61-.06-27.22-.06-40.83v-4.48h37.66V120.06H71.64V82H50ZM26.32,169.19l1.16,2c1.32-3.48,4.9-5.62,3.11-9.45h5.88c1.3,2.13,2.12,4.81,3.93,6.14,2.89,2.13,3.23,4.3,2.22,7.37a37.36,37.36,0,0,0-1,5.51l1.16.23c.66-2.14,1.63-4.24,1.88-6.43a14.25,14.25,0,0,0-.71-5.73c-.49-1.57-1.95-2.85-2.41-4.43-1-3.34-2.7-5.61-6.39-5.08-3.09.44-6.1,1.43-9.43,2.25.37.43.63.75.92,1,2.78,2.9,2.61,3.8-1,5.69a9.28,9.28,0,0,0-1.74,1.13c-.15.13,0,.6,0,1.26Zm78.94-19.69.09-.42c-1.86-.6-3.7-1.29-5.58-1.78-2.49-.64-4.62.08-5.62,2.53s.3,4.16,2.43,5.26c1.47.75,3.13,1.17,4.55,2a13.22,13.22,0,0,1,2.37,2.41l-2.64,1.72c1.38-.3,3-.78,3.49-1.8.31-.62-.81-2.47-1.74-3.1-1.73-1.16-3.93-1.63-5.67-2.79-1-.7-2.35-2.35-2.14-3.24.41-1.69,2-2.63,3.91-1.4,1.08.68,2.24,1.22,3.74,2l-.61-2ZM84.39,179.15c8.51-12,9.15-13.36,7-15.72-1,1.76-3.2,3.81-2.81,5,1.59,5-2,6.22-4.87,8.15-1.45,1-2.87,1.95-4.3,2.92l.85,1.1L83.41,178ZM21.14,88c2.11,4.08,4.85,4,7.77,3.47.74-2.72,1.18-5.64-2-6.15C25.22,85,23.16,87,21.14,88ZM78,87.57l-1.16.23,1,4.26-2.15-.46C77.39,96,79,100.17,80.88,105l3.62-4.35c-1.83.22-2.76.64-3.16.34C76.66,97.53,80.05,91.82,78,87.57ZM33.15,115.21c3.88-3.42,4.75-7.34,1.84-11.88a5.31,5.31,0,0,0-.59,3.86c1.42,3.85,1.17,4.52-2.82,5.81a25.47,25.47,0,0,0-2.72,1.23l.43.88,3.35-1.41Zm64-11.66-1.53-.2c-.06,1.17-.52,2.51-.12,3.5,1.67,4.18,1.43,4.84-3,6.26a23.59,23.59,0,0,0-2.62,1.2l.24.51,5.36-.6C98.74,111.66,98.26,107.67,97.1,103.55Zm-14.73,58c-3.6-1.69-4.54-3.36-4.13-7.28.2-2,0-4,0-6l-1.39.07.65,14.39Zm-58-.8c-8.5-1.16-5.19-7.82-6.48-12.67l-2,5.16,4.84,10.1Zm11,3.62c.92,4.55,2.1,9.09-3.54,11.39h3.48C37.93,172.62,39.7,168.77,35.37,164.33Z"/><path d="M299.8,189.78a8.91,8.91,0,0,1-2.45.77c-5.5.06-11,.07-16.48,0-.74,0-1.47-.68-2.2-1,.6-.41,1.18-1.12,1.81-1.17,3.43-.31,4.23-2.27,4.07-5.39-.58-10.94-1-21.89-2.11-33-1.48,3.49-3,7-4.44,10.48-3.87,9.32-7.69,18.66-11.6,28a10.53,10.53,0,0,1-1.92,2.3,12,12,0,0,1-1.88-2.33q-7.46-16.58-14.81-33.19c-.67-1.5-1.4-3-2.47-5.22-.36,4.64-.72,8.47-.93,12.29-.33,6.31-.66,12.62-.81,18.93-.13,5.8.25,6.14,5.83,7.35a4.86,4.86,0,0,1,1.2.61c-2.09,2.11-15.49,2.12-17.68-.06a18.92,18.92,0,0,1,2.32-.73c3.05-.55,4.51-2.43,4.72-5.42.72-10.33,1.53-20.66,2.13-31,.48-8.26.36-8.26-6.43-12.81h6.22c8.44,0,8.37,0,11.75,7.71,4.43,10.1,9,20.15,13.76,30.93,4.21-9.93,8.1-19.15,12-28.36,1.45-3.37,2.16-7.9,4.75-9.69,2.44-1.7,6.89-.51,10.46-.57,1.21,0,2.43,0,4.29,0-.82,1-1,1.35-1.23,1.44-6.18,2.18-6.37,2.18-6.08,8.75.5,11.18,1.46,22.35,1.81,33.53.13,4.48,2.88,5.44,6.66,5.89Z"/><path d="M383.87,165.22c7.54,7.86,9.66,19.51,20.43,24.38l-.41.92c-4.21,0-8.43.11-12.63-.1-.75,0-1.59-1.29-2.13-2.15-3.92-6.12-7.78-12.28-11.64-18.43-2.43-3.88-2.42-3.89-7.68-3.24,0,5.9-.09,11.84.05,17.77.05,2.31,1.6,3.62,3.89,4,1,.15,2,.28,3.19.44-1.57,2.33-20.07,2.59-22.31.6.09-.21.14-.56.28-.6C361,187,361,186.93,361,180.71c0-9.67,0-19.34,0-29,0-8.23,0-8.23-7-12.28,1.62-.16,2.57-.33,3.52-.33,7.4,0,14.8-.05,22.2,0a22.48,22.48,0,0,1,4.25.47c4.82,1,8.87,3.11,10.08,8.29,1.52,6.43-.39,11.25-5.43,14.66C387.33,163.35,385.94,164,383.87,165.22ZM370,141.34v22.77c5-.13,10.22,1,13.43-3.86a13,13,0,0,0,.39-14.2C380.76,140.74,375.48,140.92,370,141.34Z"/><path d="M306.69,188.85l3-.72a4,4,0,0,0,3.44-4.29c0-12.63,0-25.27,0-37.9,0-2.83-1.33-4.73-4.39-5.06a2.59,2.59,0,0,1-2-1.54c1-.09,1.91-.25,2.86-.25,7.39,0,14.78-.07,22.17,0a25,25,0,0,1,5.65.7c5.51,1.31,8.32,4.41,8.72,9.37.45,5.55-1.79,9.23-7,11.52-1.18.51-2.4.9-4.1,1.53,1.61.48,2.73.79,3.84,1.14C345.7,165.54,349,169.6,349,175.8a14,14,0,0,1-10.31,13.41,37.33,37.33,0,0,1-9.12,1.31c-6.67.19-13.35.09-20,0a13.24,13.24,0,0,1-3-.73Zm15.73-24.95c0,6.71-.07,13,0,19.3,0,2.87,1.52,4.49,4.58,4.87,4.6.57,8.31-.85,10.8-4.64A12.8,12.8,0,0,0,338.6,170C335.19,163.39,329,163.67,322.42,163.9Zm.12-2.63c5.13,0,10.5,1,13.18-4.41,2-4.05,2.2-8.71-.71-12.53-3.12-4.1-7.79-3.7-12.47-3.44Z"/><path d="M436.51,139.72c0-.11.06-.33.09-.33,11.25-.1,22.56-1.61,33.69,1.08,11.55,2.78,18.22,13.17,17.25,25.76-1.1,14.4-10.16,23.33-24.63,24.18-8.19.48-16.44.14-24.66.11a6.59,6.59,0,0,1-2-.71c.26-.61.31-1,.44-1,6-1.53,6-1.52,6-7.88,0-11.08-.1-22.17.09-33.25.07-3.9-.82-6.54-5.13-6.94a2.09,2.09,0,0,1-1-.37C436.55,140.27,436.56,140,436.51,139.72Zm41.68,25.91c-.87-18-8-24.92-23.75-24.44-1.76.05-3,.2-3,2.43.07,13,0,26,.1,38.95,0,2.61,1.13,4.8,3.94,5.17,5.59.75,10.95.15,15.39-3.85C476.77,178.59,478.23,171.66,478.19,165.63Z"/><path d="M537.59,152.44c-.6-1.51-1.17-3-1.8-4.52-2.06-4.92-5.77-7.36-11.11-7.45-13.4-.21-20.47,6.47-21.11,20-.3,6.27.29,12.36,3.11,18.09,4.53,9.21,15,13,24.78,8.83V177.12c0-3.34-.87-5.92-4.93-6-.51,0-1-.62-1.38-1.66h19.6c-.27.66-.4,1.4-.61,1.42-4.48.43-4.22,3.68-4.18,6.85a72.33,72.33,0,0,0,0,7.51c.37,3.11-.76,4.58-3.8,5.09-7.65,1.27-15.2,2.55-23,.46-8.63-2.31-14.42-7.45-17.54-15.74-4.46-11.86-1.35-24.8,7.73-31.72,7.4-5.63,15.93-6.41,24.79-5.48,2.22.23,4.4,1,6.62,1.16,2.82.25,3.91,1.69,3.84,4.39-.07,3,0,5.95,0,8.93Z"/><path d="M589.86,179.21c-.67,3.42-1.26,6.85-2.07,10.23-.12.5-1.25,1.08-1.91,1.09-12,.06-24.09,0-37.09,0,1-1.13,1.35-1.91,1.87-2.07,5-1.48,5.25-1.71,5.24-6.79,0-11.34-.09-22.69,0-34,0-3.84-.87-6.6-5.25-7-.4,0-.76-.38-1-1.22H585v10.59l-.72.09a9.94,9.94,0,0,1-.92-1.77c-1.56-5.52-2.78-6.5-8.5-6.52-3.1,0-6.21,0-9.31.09-.21,0-.42.17-.81.34v19.19c6-.52,13.36,3.32,15-7.4.27.3.54.59.8.89v16.59c-1.93-2.12-3.57-5.26-6.07-6.26-2.75-1.11-6.29-.26-9.9-.26,0,6.26-.19,12.32.16,18.34.07,1.29,2.06,3.45,3.26,3.51a70.79,70.79,0,0,0,14.41-.51c1.65-.25,3.07-2.69,4.39-4.29a15.88,15.88,0,0,0,1.67-3.32Z"/><path d="M231.23,190.56c-6.38,0-12,0-17.55,0-.93,0-1.87-.11-4-.24,1.37-1,1.87-1.65,2.5-1.84,3.6-1.15,4.18-2.16,2.94-5.72s-2.46-6.92-3.83-10.73c-4.85,0-9.7-.07-14.55.07a2.76,2.76,0,0,0-1.89,1.55,90,90,0,0,0-3.4,9c-1.1,3.64-.32,4.46,5.26,6.37-1.14,1.82-7.07,2.32-15.81,1.21.56-.76.86-1.66,1.34-1.76,3.7-.82,5.06-3.69,6.19-6.77,4.73-12.8,9.43-25.61,14.19-38.4.64-1.72.38-4.08,3.38-4.26,3.35-.2,3.08,2.54,3.73,4.25,5,13.07,9.85,26.21,14.74,39.32,1,2.75,2.17,5.34,5.52,6C230.32,188.61,230.52,189.37,231.23,190.56Zm-21-21.41-7-19.34c-1.39,3.83-2.48,6.83-3.55,9.84s-2.2,6.16-3.39,9.5Z"/><path d="M350.41,100.7C356.13,107,358,115.84,366,119.91c-3.28,2.37-10.2,1.29-12.2-1.91-2.84-4.54-5.8-9-8.5-13.64-1.44-2.46-3.23-3.26-6.23-2.21,0,4.37-.06,8.88,0,13.38.05,3.53,3.22,3.37,5.41,4.89H326.8c.11-.48.14-.89.21-.9,4.13-.36,5-2.77,4.84-6.58-.29-7.38-.11-14.79-.1-22.19,0-7,0-7-4.9-10.2.08-.22.16-.62.23-.62,7.72.1,15.45,0,23.16.46,4.41.24,7.51,2.7,8.41,7.37a10.38,10.38,0,0,1-4.85,11C352.92,99.35,352,99.82,350.41,100.7ZM339.2,99.6c4.28.27,8.44.9,11.08-3.29,2.11-3.36,1.75-9-.66-11.77-2.87-3.36-6.56-3.17-10.42-2.38Z"/><path d="M179,141.4c.2,4,.39,7.89.64,12.83-1.22-1.11-2-1.51-2.31-2.14-4.56-9.6-8.82-12.41-17.62-11.55-7.65.76-13.44,6.16-15.19,15.29a37.14,37.14,0,0,0,1.27,20.07c5.63,15.33,23.45,14.59,31.51,7a17.58,17.58,0,0,0,2-2.84c2.67,1.92,1.91,3.12.53,4.46-7.25,7-16,8.58-25.48,6.62-15.48-3.19-20.22-14.44-20.18-27.12a25.93,25.93,0,0,1,22.92-25.89A40.53,40.53,0,0,1,179,141.4Z"/><path d="M512.17,100.35c.05-12.21,9.12-21.48,21-21.45,12.88,0,21.84,8.4,21.87,20.41,0,13-9.4,22.65-22.1,22.5C520.64,121.67,512.13,112.88,512.17,100.35Zm35.77-.43c-1.27-3.58-2.45-8.44-4.67-12.76s-6.43-6.36-11.33-6a11.26,11.26,0,0,0-10.41,7.93c-3.13,8.94-2.47,17.55,3,25.45,3.11,4.52,7.7,5.58,12.93,4.48,4.58-1,7.19-4,8.41-8.27C546.71,107.71,547.07,104.51,547.94,99.92Z"/><path d="M177.11,119.55c6.33-.58,6.39-4.82,6.33-9.32-.11-7.15-.12-14.31,0-21.47.08-3.89-.65-6.91-5.25-7.34-.24,0-.43-.5-.65-.78,4.05-2.29,11.18-1.17,13.89,2.15,7.16,8.75,14.31,17.5,22.35,26.19v-6.11c0-4.66,0-9.31,0-14,0-5.15-.48-5.86-5.16-7.41-.44-.14-.86-.35-1.29-.53l.48-.91h14.35c-.25.54-.39,1.23-.61,1.26-5,.55-5.15,4.26-5.17,7.92-.07,10.49,0,21,0,32.65-1.71-1.23-3-1.82-3.8-2.8-7.5-8.94-14.9-18-22.35-26.94-1.1-1.33-2.25-2.61-4-4.61,0,9.72-.08,18.49.06,27.26a4.14,4.14,0,0,0,4,4.28c.58.06,1.14.43,1.59,1.42H177.64Z"/><path d="M407.05,139.37h21.48c-.32.61-.42,1.11-.61,1.15-7,1.24-5.86,3.17-5.88,8.42q0,15.93,0,31.85c0,6.66,0,6.66,6.83,8.28-.81.67-1.3,1.41-1.79,1.41-6.65.08-13.3.05-20,.05l-.34-.92c.66-.4,1.3-1.05,2-1.14,3.21-.43,4.44-2.25,4.44-5.36q-.06-18.44,0-36.86c0-3-1.11-4.76-4.13-5.24a13.14,13.14,0,0,1-2.22-.74Z"/><path d="M289.78,79.9h28.77v8.64c-2.65-9.14-9.89-6.11-16.08-6.62V97.51c6.39,1.65,8.78.72,12.41-5.26v14.63c-3.38-8-5.15-6.48-12.59-6.11,0,4.81-.18,9.67.14,14.5a4.18,4.18,0,0,0,2.88,2.87,34.87,34.87,0,0,0,10.26-.32c1.74-.38,3.13-2.57,4.56-4.06a9.88,9.88,0,0,0,1.23-2.27l.92.26c-.52,2.76-1,5.54-1.63,8.26-.1.43-1.13.9-1.74.9q-13.94,0-27.89,0c-.26,0-.52-.36-.75-.53a3.22,3.22,0,0,1,.13-.76c4.52-.36,4.9-3.34,4.83-7-.17-8.34-.13-16.69,0-25,0-3.31-.37-6-4.48-6.15C290.53,81.34,290.36,80.82,289.78,79.9Z"/><path d="M131.3,80h16.93a5.75,5.75,0,0,1-.14,1c-5.38.45-4.94,4.33-4.89,8.1.09,6.44-.14,12.89.12,19.32.36,9,9.33,13.77,17,9.15,4.16-2.53,5.06-6.76,5.19-11.11.19-6.56,0-13.12,0-19.68,0-2.92-.66-5.23-4.21-5.37-.34,0-.65-.53-1.63-1.38h13.64a5,5,0,0,1-.17,1c-5.23.43-4.79,4.2-4.75,7.85.06,6.08.11,12.17,0,18.25-.2,9.12-5.4,14.37-14.47,14.61a33.19,33.19,0,0,1-7.1-.62c-6.83-1.34-10.52-5.76-10.64-12.72-.1-6,.11-11.94-.06-17.9-.12-3.94,2.07-9.22-5.92-9.39Z"/><path d="M487,80.07h13.62c-7.57,4.56-10,11.86-14.24,17.84-1.25,1.78-1.61,4.31-2,6.57a36.14,36.14,0,0,0,0,6.07c0,4.16-1.09,9,6.26,8.92l-.74,1H471.68l-.11-.65a5.86,5.86,0,0,1,1.75-.66c2.93-.06,4-1.66,3.88-4.38a2.89,2.89,0,0,1,0-.72c2.79-13.31-6.42-21.58-13.09-30.87-.88-1.21-2.79-1.67-4-3.16H477c.08.27.16.53.23.8l-4,2c3.29,5.19,6.49,10.23,9.93,15.67,2.81-4.42,5.38-8.49,8-12.54,1.41-2.23,1.83-4-1.7-4.34C488.87,81.5,488.45,81,487,80.07Z"/><path d="M559.3,119.86a8.08,8.08,0,0,1,2-.74c2.41-.15,3.31-1.52,3.3-3.77q0-15,0-30c0-2.07-.74-3.42-3-3.66a8.13,8.13,0,0,1-2.1-.85l.24-.85h28.14v9.52c-3.48-7.76-6.21-8.88-16-7.1V97.52c6.13,1.49,8.22.81,13-4.36V106c-2.06-7.25-7.7-5.54-13.18-5.52,0,5.4-.14,10.71.13,16,0,.89,1.78,1.87,2.92,2.46.83.43,2,.29,3.33.45C575.84,121.31,562.34,121.49,559.3,119.86Z"/><path d="M457.9,77.34c-.47,3.93-.89,7.37-1.3,10.81l-.92.71c-1.16-9.56-7.86-5.46-13-6.65v21.25c0,2.63,0,5.25,0,7.87,0,6.44,0,6.44,5.67,9a106.32,106.32,0,0,1-18.69.48c.38-.94.41-1.29.55-1.33,5.34-1.73,5.36-1.73,5.38-7.5,0-9.64,0-19.29,0-28.88-8.19-2-11.2-.93-15.06,5.06.21-3.35.43-6.71.65-10.27C426.46,80.57,453.52,80.34,457.9,77.34Z"/><path d="M246.57,80H264c-.71.68-1.14,1.46-1.62,1.49-3,.21-2.93,2.19-2.21,4.07,3.27,8.51,6.7,17,10.38,26.23L278,91.16c.12-.34.16-.7.28-1,2.21-6.31,2.21-6.31-3.1-10h11.91c0,.11.16.51.11.54-4.09,2.13-4.82,6.39-6.26,10.11-3.47,8.94-6.71,18-10.16,26.93-.49,1.28-1.63,2.31-2.46,3.46-.94-1.17-2.21-2.2-2.77-3.53-3.68-8.74-7-17.61-10.85-26.29-1.83-4.15-2-9.78-8.76-10.37Z"/><path d="M390.76,88.37c-.4-1-.78-1.92-1.2-2.86a6.89,6.89,0,0,0-7.21-4.21c-3.34.22-5.94,1.94-6.79,5.35a6.88,6.88,0,0,0,3.29,8c2.31,1.44,4.77,2.64,7.18,3.92,6.75,3.59,9.36,8.86,7.57,14.73-2.07,6.77-8.86,9.17-15.39,8.92-.59,0-1.16-.23-1.75-.3-6.82-.78-8.81-3.84-6.75-11.69.69,1.62,1.11,2.59,1.53,3.57a9.4,9.4,0,0,0,9.89,6c2.86-.24,5.05-1.55,6.09-4.23s.76-5.63-1.66-7.46a96.06,96.06,0,0,0-9.36-5.79c-4.34-2.54-6.92-5.92-6.59-11.3.3-5,2.35-9.18,7.16-10.35,4.13-1,8.63-.57,13-.54a2.86,2.86,0,0,1,1.94,1.94,47.27,47.27,0,0,1,.09,6.19Z"/><path d="M227.17,119.77a6.71,6.71,0,0,1,1.74-.65c2.41-.16,3.3-1.51,3.29-3.77q0-15,0-30c0-2.29-1-3.57-3.33-3.74-.59,0-1.15-.47-1.64-1.46h17.13c-.31.52-.57,1.32-.84,1.33-3.86,0-4.29,2.46-4.25,5.57.1,7.74,0,15.49,0,23.23,0,6.85,0,6.85,5.64,10.27H227.28Z"/><path d="M399.91,80h17a5,5,0,0,1-.06,1c-4.91.7-5,4.11-4.91,8,.2,7.74.07,15.5,0,23.25,0,5.7,0,5.7,4.93,8.13h-17c6.89-1.06,4.79-6.32,4.86-10.32.14-7.63-.07-15.27.08-22.89.06-3.26-.28-5.78-4.35-5.71-.17,0-.4-.26-.5-.46A3.58,3.58,0,0,1,399.91,80Z"/><path d="M85.35,155.55c-1.06-2.56.56-5.38,3.54-6.18-.29,1.88-.57,3.78-.86,5.67a4.47,4.47,0,0,1-.45.42l-2.33,0Z"/><path d="M48.92,122.09H72.44c0,5.62.13,10.6-.11,15.55,0,.94-1.57,1.8-2.85,3.16l-.25,4.76H65.42l-.29-5.86h-9l-.27,5.81-3.36.34-.38-5.94L48.92,139Z"/><path d="M95.67,138.41c.63-3.23,1.14-5.85,1.74-8.9l1.67,8.75Z"/><path d="M35.16,138.37l1.75-8.31,1.65,8.31Z"/><path d="M67,95.71c-1.5-1.52-2.16-2.8-1-4.86.69-1.24.33-3.06,1-4.75a21.16,21.16,0,0,0,.34,3.2c.31,1.23,1.17,2.39,1.19,3.59C68.53,93.77,67.57,94.67,67,95.71Z"/><path d="M90.94,132.05c-3.62-3,1.69-6.2-.74-9.22l1.16,0c.3,3,.61,6.09.91,9.13Z"/><path d="M55,85.9c.52,2.72,1,5.19,1.57,8.12-.92,1-2.38.6-3.3-.12Z"/><path d="M105.07,130.5l-1.53,1.42-1.42-1.49c.49-2.74.94-5.23,1.5-8.32Z"/><path d="M55,157.16,56.87,165H53.2Z"/><path d="M68.46,164.56l-1.62,1.38-1.77-1.64,1.75-7.9Z"/><path d="M18.17,132.27c-1.5-1.54-1.74-3-.62-5.1.63-1.16.11-3,.55-4.41A58.78,58.78,0,0,1,20,129.82C20.07,130.53,18.8,131.45,18.17,132.27Z"/><path d="M65.71,115.85q.35-4.63.68-9.27h.75c.24,3.11.48,6.21.71,9.32Z"/><path d="M41.58,130.47l1.73-7.91c.16,1.76.28,3.36.45,5,.15,1.39.36,2.77.55,4.16l-.93.34Z"/><path d="M30.6,122.82l1.48,7.64-1.63,1.37c-.5-.62-1.63-1.41-1.54-2A70.49,70.49,0,0,1,30.6,122.82Z"/><path d="M53.88,187c.28-3,.57-6,.85-9l.38,0c.24,1.65.55,3.3.68,5,.12,1.38,0,2.78,0,4.18Z"/><path d="M78.62,122.71l1.45,7.76L78.39,132c-.46-.67-1.66-1.61-1.56-2.39A55.18,55.18,0,0,1,78.62,122.71Z"/><path d="M60.75,146.05a51.55,51.55,0,0,1,1.49,6.4c.1.87-.83,1.86-1.3,2.79l-1.17-.12.53-9.25Z"/><path d="M60.76,96.63a42.63,42.63,0,0,1,1.2,5.84c.08,1.09-.64,2.25-1,3.37l-1.28-.22.67-9.31Z"/><path d="M60.84,167.38l1.47,7.56-1.73,1.62-.94-.08.7-9.13Z"/><path d="M65.81,187.39l.5-9.2.73-.13.45,5c.12,1.45.24,2.89.37,4.34Z"/><path d="M84.93,139.32l-1.79-1.42,1.8-8.44c.42,3.66.77,6.68,1.12,9.7Z"/><path d="M55,106.46,56.18,114l-1.39,1.68-.88,0,.58-9Z"/><path d="M23.87,138.72l-1.49-1.17,2.08-4.08,1.82,3.81Z"/></svg>