<?xml version="1.0" standalone="no"?>
<!DOCTYPE svg PUBLIC "-//W3C//DTD SVG 20010904//EN"
 "http://www.w3.org/TR/2001/REC-SVG-20010904/DTD/svg10.dtd">
<svg version="1.0" xmlns="http://www.w3.org/2000/svg"
 width="291.000000pt" height="291.000000pt" viewBox="0 0 291.000000 291.000000"
 preserveAspectRatio="xMidYMid meet">
<metadata>
Created by potrace 1.14, written by Peter Selinger 2001-2017
</metadata>
<g transform="translate(0.000000,291.000000) scale(0.100000,-0.100000)"
fill="#000000" stroke="none">
<path d="M2405 2528 c-66 -39 -191 -113 -278 -164 -87 -52 -161 -94 -163 -94
-3 0 -17 -8 -32 -19 -15 -10 -70 -43 -122 -73 -52 -30 -162 -94 -243 -142
l-148 -87 163 -97 c90 -54 209 -124 265 -157 57 -33 101 -64 100 -70 -2 -5
-19 -18 -38 -28 -76 -43 -465 -270 -483 -282 -21 -15 2 -26 -241 115 -88 51
-176 102 -195 113 -47 26 -190 109 -215 124 -11 7 -27 16 -35 20 -8 4 -86 49
-173 100 -88 51 -161 93 -163 93 -2 0 -25 14 -51 30 -26 17 -52 30 -59 30 -8
0 -11 -159 -11 -637 0 -351 2 -643 4 -650 3 -6 84 -58 181 -115 98 -56 220
-128 272 -160 l95 -56 5 323 5 324 278 -160 278 -160 37 18 c20 11 142 79 270
152 128 72 239 134 247 138 13 4 15 -41 17 -315 l3 -320 125 74 c69 41 132 79
140 84 8 5 74 43 145 86 72 42 133 81 137 87 5 8 10 1948 4 1947 0 -1 -55 -33
-121 -72z"/>
</g>
</svg>
