<svg id="Layer_1" data-name="Layer 1" xmlns="http://www.w3.org/2000/svg" viewBox="0 0 595.28 272.41"><title>Certificates logos</title><path d="M363.44,109.7c5.92-6.12,12.16-9.46,19.56-10.23,10.29-1,19.46,1.19,25.85,10,1.69,2.34,2.52,1.79,4.18.18,10-9.68,22.21-12.2,35.45-9.54,12.68,2.55,21.8,14,22.17,28.26.51,19.36.23,38.73.39,58.09,0,2.35-1,2.65-3,2.62-4.93-.09-9.87-.16-14.81,0-2.43.08-3.19-.64-3.17-3.16.11-15.31,0-30.63.06-45.94a36.45,36.45,0,0,0-1.42-11.24c-1.78-5.65-5.43-9.53-11.33-10.49-6.41-1-12.05.79-16.14,6.17-3.27,4.31-4.38,9.31-4.39,14.62,0,15.31-.13,30.63.09,45.94,0,3.52-1.08,4.31-4.28,4.11a82.57,82.57,0,0,0-11.77,0c-3.63.29-4.92-.56-4.84-4.61.3-14.8.11-29.61.13-44.42a48,48,0,0,0-.6-7.93c-1.32-8-6-13.19-12.8-14-7.76-1-14.63,3.28-17.68,10.81a28.84,28.84,0,0,0-1.71,11.16c0,14.93-.12,29.87.1,44.8.05,3.66-1.17,4.52-4.52,4.33-4.54-.25-9.11-.11-13.67,0-2,0-3-.37-2.95-2.69q.09-41.39,0-82.78c0-2.18.78-2.87,2.87-2.83,4.81.1,9.63.22,14.43,0,3.13-.17,4.09,1,3.78,3.92C363.33,106,363.44,107.3,363.44,109.7Z"/><path d="M520.29,165c6-14.68,11.7-28.55,17.39-42.42,2.58-6.31,5.21-12.6,7.71-19a3.61,3.61,0,0,1,3.92-2.7c5.18.13,10.38.16,15.56,0,2.91-.1,3,.86,2,3.18q-14.94,35-29.74,70.07c-4.43,10.46-8.79,21-13.32,31.38C521,211.92,517.58,218,512.55,223c-5.68,5.65-12.73,7.37-20.46,7.37-8.25,0-8.25.06-8.25-8v-.38c0-3.16-1-7,.38-9.33,1.62-2.76,5.75-.68,8.76-1.15a12.73,12.73,0,0,0,9.7-7.12c2.09-4,3.81-8.25,5.75-12.35.81-1.72.12-3.19-.49-4.72-11.14-27.49-22.23-55-33.48-82.46-1.33-3.25-.87-4.12,2.65-3.93,4.67.25,9.36.22,14,0,2.56-.12,3.76.74,4.71,3.15,7.56,19.26,15.27,38.47,22.94,57.69C519.12,162.52,519.51,163.28,520.29,165Z"/><path d="M48.75,133.61c0-11.07.1-20.19-.06-29.3,0-2.7.83-3.53,3.46-3.42,4.43.18,8.88.24,13.29,0,3.37-.2,4.56.69,4.51,4.33-.21,15.31-.13,30.63-.07,46,0,10.33,4.73,17.37,13.13,20,12.92,4,25.17-4.86,25.31-18.6q.23-23.93,0-47.85c0-3,.79-4,3.78-3.84,4.8.22,9.62.15,14.43,0,2.22-.05,3.14.59,3.12,3-.09,17.21.24,34.44-.14,51.65C129,175.86,114.72,190,94.4,191.13c-12.08.7-23.49-.73-33.32-8.55-7.35-5.84-11.13-13.62-12-22.84S49,141,48.75,133.61Z"/><path d="M48.71,68.69c-2.35-8.44,2.16-12.52,9.15-16,9.49-4.76,18.52-10.43,27.65-15.87,2.44-1.44,4.39-1.68,7-.16,11.32,6.71,22.74,13.26,34.19,19.75a5.16,5.16,0,0,1,3,5.15c-.13,5.18,0,10.38-.06,15.56-.05,4-.49,4.24-4.1,2.17-11-6.31-22-12.59-32.84-19-2.47-1.47-4.35-1.61-6.91-.09C75,66.55,64.09,72.73,53.23,79c-4,2.3-4.38,2.11-4.51-2.32C48.65,74,48.71,71.34,48.71,68.69Z"/><path d="M232.81,80.06c0-3.41-.06-6.83,0-10.24,0-2-.73-2.66-2.68-2.63-4.94.1-9.88.24-14.8,0-3.11-.17-3.75.95-3.71,3.83.15,12.27.06,24.54.06,37.29-24.58-16.58-49.54-8.45-62,6.57-12.89,15.61-13.8,41.8-1.31,58.67,7.37,10,17.28,15.84,29.58,17.23s23.51-1.24,33.68-9.47a23.9,23.9,0,0,1,0,3.8c-.68,3.53,1,4.25,4.15,4.06a91.63,91.63,0,0,1,12.51,0c3.79.29,4.55-1.18,4.53-4.7C232.75,149.64,232.81,114.85,232.81,80.06ZM186.5,172c-14.92,0-26.21-11.64-26.13-27s11.18-26.81,25.95-26.81A26.92,26.92,0,0,1,186.5,172Z"/><path d="M331.39,132.42c-4.43-19.6-18.31-32-39.13-33.73-20.11-1.67-38.17,7.7-46,27-3.87,9.47-4.28,19.42-2.66,29.44,2.34,14.54,10.26,25,23.45,31.46,8.28,4.06,17.16,5,26.22,4.46a48.21,48.21,0,0,0,32.9-15.19c1.58-1.62,1.17-2.36-.53-3.3-3.75-2.08-7.5-4.2-11.16-6.43a3.26,3.26,0,0,0-4.36.29,31.55,31.55,0,0,1-26.4,6.33c-9.54-1.84-16.34-7-19.14-16.71-1.23-4.25-1-4.57,3.24-4.57h30c10.25,0,20.5-.13,30.74.08,2.93.05,3.7-1.09,3.84-3.65A55.64,55.64,0,0,0,331.39,132.42Zm-25.86,2.41H264.36c1.11-7.34,5.38-11.86,11.27-15.12,10.1-5.59,22.26-4,30.14,3.77a18.19,18.19,0,0,1,3.58,4.87C312.18,134.05,311.71,134.83,305.53,134.83Z"/></svg>